<svg xmlns="http://www.w3.org/2000/svg" xmlns:xlink="http://www.w3.org/1999/xlink" width="512" zoomAndPan="magnify" viewBox="0 0 384 383.999986" height="512" preserveAspectRatio="xMidYMid meet" version="1.2"><defs/><g id="584f608eab"><g style="fill:#bf0202;fill-opacity:1;"><g transform="translate(149.31373, 263.596552)"><path style="stroke:none" d="M -0.988281 -0.683594 L 15.925781 -84.519531 L 19.304688 -83.835938 L 15.914062 -83.222656 L 1.757812 -161.5625 L 39.734375 -161.5625 L 48.453125 -104.210938 L 45.042969 -103.691406 L 41.625 -104.144531 L 49.191406 -161.5625 L 87.421875 -161.5625 L 73.070312 -83.214844 L 69.679688 -83.835938 L 73.058594 -84.519531 L 90.808594 3.445312 L 51.667969 3.445312 L 41.273438 -61.226562 L 44.675781 -61.773438 L 48.078125 -61.21875 L 37.492188 3.445312 L -1.820312 3.445312 Z M 5.769531 0.683594 L 2.390625 0 L 2.390625 -3.445312 L 34.5625 -3.445312 L 34.5625 0 L 31.164062 -0.558594 L 41.273438 -62.332031 L 48.078125 -62.320312 L 58.007812 -0.546875 L 54.605469 0 L 54.605469 -3.445312 L 86.59375 -3.445312 L 86.59375 0 L 83.214844 0.683594 L 66.167969 -83.804688 L 79.894531 -158.734375 L 83.285156 -158.113281 L 83.285156 -154.667969 L 52.214844 -154.667969 L 52.214844 -158.113281 L 55.632812 -157.664062 L 48.460938 -103.242188 L 41.636719 -103.175781 L 33.363281 -157.59375 L 36.769531 -158.113281 L 36.769531 -154.667969 L 5.882812 -154.667969 L 5.882812 -158.113281 L 9.277344 -158.726562 L 22.8125 -83.800781 Z M 5.769531 0.683594 "/></g></g><g style="fill:#bf0202;fill-opacity:1;"><g transform="translate(228.503588, 146.375543)"><path style="stroke:none" d="M 5.546875 0 L 5.546875 -34.375 L 0.5 -34.375 L 0.5 -42.546875 L 19.125 -42.546875 L 19.125 -34.375 L 14.0625 -34.375 L 14.0625 0 Z M 5.546875 0 "/></g></g><g style="fill:#bf0202;fill-opacity:1;"><g transform="translate(155.487228, 226.343132)"><path style="stroke:none" d="M -5.546875 0 L -5.546875 34.375 L -0.5 34.375 L -0.5 42.546875 L -19.125 42.546875 L -19.125 34.375 L -14.0625 34.375 L -14.0625 0 Z M -5.546875 0 "/></g></g></g></svg>